<svg width="1197" height="104" viewBox="0 0 1197 104" fill="none" xmlns="http://www.w3.org/2000/svg">
<rect width="1197" height="104" fill="#F9FCF5"/>
<path d="M122.6 54.24H126.76L124.744 47.84H124.616L122.6 54.24ZM112.84 64L121.32 41.6H128.04L136.52 64H129.96L128.36 59.2H121L119.4 64H112.84ZM138.935 64V41.6H144.215L153.815 53.92V41.6H159.895V64H154.615L145.015 51.68V64H138.935ZM165.029 64V41.6H170.309L179.909 53.92V41.6H185.989V64H180.709L171.109 51.68V64H165.029ZM191.123 64V41.6H197.203V64H191.123ZM207.75 64L199.75 41.6H206.31L211.046 57.28H211.174L215.91 41.6H222.47L214.47 64H207.75ZM225.029 64V41.6H242.149V47.04H231.109V50.24H239.589V55.36H231.109V58.56H242.469V64H225.029ZM246.31 64V41.6H256.87C259.238 41.6 261.19 42.336 262.726 43.808C264.262 45.28 265.03 47.104 265.03 49.28C265.03 51.328 264.39 52.992 263.11 54.272C262.555 54.8693 261.915 55.3387 261.19 55.68L265.83 64H259.43L255.75 56.96H252.39V64H246.31ZM252.39 51.52H256.55C257.254 51.52 257.83 51.3067 258.278 50.88C258.726 50.4533 258.95 49.92 258.95 49.28C258.95 48.64 258.726 48.1067 258.278 47.68C257.83 47.2533 257.254 47.04 256.55 47.04H252.39V51.52ZM267.425 60.8L270.945 56.96C271.329 57.408 271.766 57.8133 272.257 58.176C273.388 58.9653 274.55 59.36 275.745 59.36C276.662 59.36 277.366 59.1787 277.857 58.816C278.369 58.432 278.625 57.9733 278.625 57.44C278.625 56.9707 278.358 56.5653 277.825 56.224C277.313 55.8613 276.662 55.5733 275.873 55.36C275.105 55.1253 274.262 54.816 273.345 54.432C272.428 54.048 271.574 53.6213 270.785 53.152C270.017 52.6613 269.366 51.968 268.833 51.072C268.321 50.1547 268.065 49.0773 268.065 47.84C268.065 45.984 268.844 44.3733 270.401 43.008C271.958 41.6427 274.006 40.96 276.545 40.96C278.806 40.96 280.79 41.4933 282.497 42.56C283.286 43.072 283.916 43.6053 284.385 44.16L280.865 48C280.566 47.6587 280.236 47.3707 279.873 47.136C279.084 46.5387 278.188 46.24 277.185 46.24C276.353 46.24 275.713 46.4 275.265 46.72C274.838 47.0187 274.625 47.392 274.625 47.84C274.625 48.3093 274.881 48.7253 275.393 49.088C275.926 49.4293 276.577 49.7173 277.345 49.952C278.134 50.1653 278.988 50.464 279.905 50.848C280.822 51.232 281.665 51.6693 282.433 52.16C283.222 52.6293 283.873 53.3227 284.385 54.24C284.918 55.136 285.185 56.2027 285.185 57.44C285.185 59.4453 284.374 61.152 282.753 62.56C281.153 63.9467 279.03 64.64 276.385 64.64C273.825 64.64 271.574 64 269.633 62.72C268.78 62.1653 268.044 61.5253 267.425 60.8ZM295.756 54.24H299.916L297.9 47.84H297.772L295.756 54.24ZM285.996 64L294.476 41.6H301.196L309.676 64H303.116L301.516 59.2H294.156L292.556 64H285.996ZM312.091 64V41.6H322.651C325.019 41.6 326.971 42.336 328.507 43.808C330.043 45.28 330.811 47.104 330.811 49.28C330.811 51.328 330.171 52.992 328.891 54.272C328.337 54.8693 327.697 55.3387 326.971 55.68L331.611 64H325.211L321.531 56.96H318.171V64H312.091ZM318.171 51.52H322.331C323.035 51.52 323.611 51.3067 324.059 50.88C324.507 50.4533 324.731 49.92 324.731 49.28C324.731 48.64 324.507 48.1067 324.059 47.68C323.611 47.2533 323.035 47.04 322.331 47.04H318.171V51.52ZM339.461 64V56L331.461 41.6H338.181L342.437 50.4H342.565L346.821 41.6H353.541L345.541 56V64H339.461ZM360.081 60.8L363.601 56.96C363.985 57.408 364.423 57.8133 364.913 58.176C366.044 58.9653 367.207 59.36 368.401 59.36C369.319 59.36 370.023 59.1787 370.513 58.816C371.025 58.432 371.281 57.9733 371.281 57.44C371.281 56.9707 371.015 56.5653 370.481 56.224C369.969 55.8613 369.319 55.5733 368.529 55.36C367.761 55.1253 366.919 54.816 366.001 54.432C365.084 54.048 364.231 53.6213 363.441 53.152C362.673 52.6613 362.023 51.968 361.489 51.072C360.977 50.1547 360.721 49.0773 360.721 47.84C360.721 45.984 361.5 44.3733 363.057 43.008C364.615 41.6427 366.663 40.96 369.201 40.96C371.463 40.96 373.447 41.4933 375.153 42.56C375.943 43.072 376.572 43.6053 377.041 44.16L373.521 48C373.223 47.6587 372.892 47.3707 372.529 47.136C371.74 46.5387 370.844 46.24 369.841 46.24C369.009 46.24 368.369 46.4 367.921 46.72C367.495 47.0187 367.281 47.392 367.281 47.84C367.281 48.3093 367.537 48.7253 368.049 49.088C368.583 49.4293 369.233 49.7173 370.001 49.952C370.791 50.1653 371.644 50.464 372.561 50.848C373.479 51.232 374.321 51.6693 375.089 52.16C375.879 52.6293 376.529 53.3227 377.041 54.24C377.575 55.136 377.841 56.2027 377.841 57.44C377.841 59.4453 377.031 61.152 375.409 62.56C373.809 63.9467 371.687 64.64 369.041 64.64C366.481 64.64 364.231 64 362.289 62.72C361.436 62.1653 360.7 61.5253 360.081 60.8ZM388.413 54.24H392.573L390.557 47.84H390.429L388.413 54.24ZM378.652 64L387.133 41.6H393.853L402.333 64H395.773L394.173 59.2H386.812L385.213 64H378.652ZM404.748 64V41.6H410.828V58.24H420.588V64H404.748ZM423.779 64V41.6H440.899V47.04H429.859V50.24H438.339V55.36H429.859V58.56H441.219V64H423.779Z" fill="#7EBA35"/>
<path d="M450.331 60.8L453.851 56.96C454.235 57.408 454.673 57.8133 455.163 58.176C456.294 58.9653 457.457 59.36 458.651 59.36C459.569 59.36 460.273 59.1787 460.763 58.816C461.275 58.432 461.531 57.9733 461.531 57.44C461.531 56.9707 461.265 56.5653 460.731 56.224C460.219 55.8613 459.569 55.5733 458.779 55.36C458.011 55.1253 457.169 54.816 456.251 54.432C455.334 54.048 454.481 53.6213 453.691 53.152C452.923 52.6613 452.273 51.968 451.739 51.072C451.227 50.1547 450.971 49.0773 450.971 47.84C450.971 45.984 451.75 44.3733 453.307 43.008C454.865 41.6427 456.913 40.96 459.451 40.96C461.713 40.96 463.697 41.4933 465.403 42.56C466.193 43.072 466.822 43.6053 467.291 44.16L463.771 48C463.473 47.6587 463.142 47.3707 462.779 47.136C461.99 46.5387 461.094 46.24 460.091 46.24C459.259 46.24 458.619 46.4 458.171 46.72C457.745 47.0187 457.531 47.392 457.531 47.84C457.531 48.3093 457.787 48.7253 458.299 49.088C458.833 49.4293 459.483 49.7173 460.251 49.952C461.041 50.1653 461.894 50.464 462.811 50.848C463.729 51.232 464.571 51.6693 465.339 52.16C466.129 52.6293 466.779 53.3227 467.291 54.24C467.825 55.136 468.091 56.2027 468.091 57.44C468.091 59.4453 467.281 61.152 465.659 62.56C464.059 63.9467 461.937 64.64 459.291 64.64C456.731 64.64 454.481 64 452.539 62.72C451.686 62.1653 450.95 61.5253 450.331 60.8ZM471.623 64V41.6H477.703V49.76H485.863V41.6H491.943V64H485.863V55.52H477.703V64H471.623ZM503.812 48.384C502.617 49.5787 502.02 51.0507 502.02 52.8C502.02 54.5493 502.617 56.032 503.812 57.248C505.028 58.4427 506.511 59.04 508.26 59.04C510.009 59.04 511.481 58.4427 512.676 57.248C513.892 56.032 514.5 54.5493 514.5 52.8C514.5 51.0507 513.892 49.5787 512.676 48.384C511.481 47.168 510.009 46.56 508.26 46.56C506.511 46.56 505.028 47.168 503.812 48.384ZM499.332 61.216C496.964 58.912 495.78 56.1067 495.78 52.8C495.78 49.4933 496.964 46.6987 499.332 44.416C501.721 42.112 504.697 40.96 508.26 40.96C511.823 40.96 514.788 42.112 517.156 44.416C519.545 46.6987 520.74 49.4933 520.74 52.8C520.74 56.1067 519.545 58.912 517.156 61.216C514.788 63.4987 511.823 64.64 508.26 64.64C504.697 64.64 501.721 63.4987 499.332 61.216ZM524.591 64V41.6H534.671C537.125 41.6 539.119 42.3467 540.655 43.84C542.213 45.312 542.991 47.1787 542.991 49.44C542.991 51.7013 542.213 53.5787 540.655 55.072C539.119 56.544 537.125 57.28 534.671 57.28H530.671V64H524.591ZM530.671 51.84H534.351C535.055 51.84 535.653 51.6053 536.143 51.136C536.655 50.6453 536.911 50.08 536.911 49.44C536.911 48.8 536.655 48.2453 536.143 47.776C535.653 47.2853 535.055 47.04 534.351 47.04H530.671V51.84ZM546.841 64V41.6H556.921C559.375 41.6 561.369 42.3467 562.905 43.84C564.463 45.312 565.241 47.1787 565.241 49.44C565.241 51.7013 564.463 53.5787 562.905 55.072C561.369 56.544 559.375 57.28 556.921 57.28H552.921V64H546.841ZM552.921 51.84H556.601C557.305 51.84 557.903 51.6053 558.393 51.136C558.905 50.6453 559.161 50.08 559.161 49.44C559.161 48.8 558.905 48.2453 558.393 47.776C557.903 47.2853 557.305 47.04 556.601 47.04H552.921V51.84ZM569.091 64V41.6H575.171V64H569.091ZM580.279 64V41.6H585.559L595.159 53.92V41.6H601.239V64H595.959L586.359 51.68V64H580.279ZM617.893 56V51.52H627.493V60.16C626.831 60.9707 625.999 61.7173 624.997 62.4C622.778 63.8933 620.303 64.64 617.573 64.64C614.01 64.64 611.034 63.4987 608.645 61.216C606.277 58.912 605.093 56.1067 605.093 52.8C605.093 49.4933 606.277 46.6987 608.645 44.416C611.034 42.112 614.01 40.96 617.573 40.96C620.261 40.96 622.661 41.6853 624.773 43.136C625.711 43.7973 626.511 44.512 627.173 45.28L623.493 49.44C623.002 48.9067 622.458 48.4267 621.861 48C620.474 47.04 619.045 46.56 617.573 46.56C615.823 46.56 614.341 47.168 613.125 48.384C611.93 49.5787 611.333 51.0507 611.333 52.8C611.333 54.5493 611.93 56.032 613.125 57.248C614.341 58.4427 615.823 59.04 617.573 59.04C618.725 59.04 619.706 58.8267 620.517 58.4C620.858 58.2293 621.21 58.016 621.573 57.76V56H617.893ZM650.361 56V51.52H659.961V60.16C659.3 60.9707 658.468 61.7173 657.465 62.4C655.247 63.8933 652.772 64.64 650.041 64.64C646.479 64.64 643.503 63.4987 641.113 61.216C638.745 58.912 637.561 56.1067 637.561 52.8C637.561 49.4933 638.745 46.6987 641.113 44.416C643.503 42.112 646.479 40.96 650.041 40.96C652.729 40.96 655.129 41.6853 657.241 43.136C658.18 43.7973 658.98 44.512 659.641 45.28L655.961 49.44C655.471 48.9067 654.927 48.4267 654.329 48C652.943 47.04 651.513 46.56 650.041 46.56C648.292 46.56 646.809 47.168 645.593 48.384C644.399 49.5787 643.801 51.0507 643.801 52.8C643.801 54.5493 644.399 56.032 645.593 57.248C646.809 58.4427 648.292 59.04 650.041 59.04C651.193 59.04 652.175 58.8267 652.985 58.4C653.327 58.2293 653.679 58.016 654.041 57.76V56H650.361ZM664.119 54.72V41.6H670.199V54.72C670.199 56 670.583 57.0453 671.351 57.856C672.14 58.6453 673.143 59.04 674.359 59.04C675.575 59.04 676.567 58.6453 677.335 57.856C678.124 57.0453 678.519 56 678.519 54.72V41.6H684.599V54.72C684.599 57.6213 683.639 60 681.719 61.856C679.82 63.712 677.367 64.64 674.359 64.64C671.351 64.64 668.887 63.712 666.967 61.856C665.068 60 664.119 57.6213 664.119 54.72ZM689.56 64V41.6H695.64V64H689.56ZM700.748 64V41.6H709.068C712.609 41.6 715.521 42.6773 717.804 44.832C720.086 46.9867 721.228 49.6427 721.228 52.8C721.228 55.9573 720.086 58.6133 717.804 60.768C715.521 62.9227 712.609 64 709.068 64H700.748ZM706.828 58.56H709.068C710.796 58.56 712.214 58.016 713.324 56.928C714.433 55.84 714.988 54.464 714.988 52.8C714.988 51.136 714.433 49.76 713.324 48.672C712.214 47.584 710.796 47.04 709.068 47.04H706.828V58.56ZM725.06 64V41.6H742.18V47.04H731.14V50.24H739.62V55.36H731.14V58.56H742.5V64H725.06Z" fill="#10151A"/>
<path d="M903.84 46V35.92H900.32V34.8H908.56V35.92H905.04V46H903.84ZM915.33 45.008C914.573 45.776 913.65 46.16 912.562 46.16C911.474 46.16 910.546 45.776 909.778 45.008C909.021 44.2293 908.642 43.28 908.642 42.16C908.642 41.04 909.021 40.096 909.778 39.328C910.546 38.5493 911.474 38.16 912.562 38.16C913.65 38.16 914.573 38.5493 915.33 39.328C916.098 40.096 916.482 41.04 916.482 42.16C916.482 43.28 916.098 44.2293 915.33 45.008ZM910.578 44.256C911.133 44.832 911.794 45.12 912.562 45.12C913.33 45.12 913.986 44.8373 914.53 44.272C915.085 43.696 915.362 42.992 915.362 42.16C915.362 41.328 915.085 40.6293 914.53 40.064C913.986 39.488 913.33 39.2 912.562 39.2C911.794 39.2 911.133 39.488 910.578 40.064C910.034 40.6293 909.762 41.328 909.762 42.16C909.762 42.9813 910.034 43.68 910.578 44.256ZM918.483 49.36V38.32H919.603V39.44C919.784 39.1947 920.003 38.9813 920.259 38.8C920.835 38.3733 921.496 38.16 922.243 38.16C923.299 38.16 924.19 38.5387 924.915 39.296C925.64 40.0533 926.003 41.008 926.003 42.16C926.003 43.312 925.64 44.2667 924.915 45.024C924.19 45.7813 923.299 46.16 922.243 46.16C921.496 46.16 920.835 45.9467 920.259 45.52C920.003 45.3387 919.784 45.1253 919.603 44.88V49.36H918.483ZM922.243 45.12C922.979 45.12 923.603 44.8427 924.115 44.288C924.627 43.7333 924.883 43.024 924.883 42.16C924.883 41.296 924.627 40.5867 924.115 40.032C923.603 39.4773 922.979 39.2 922.243 39.2C921.55 39.2 920.936 39.488 920.403 40.064C919.87 40.64 919.603 41.3387 919.603 42.16C919.603 42.9813 919.87 43.68 920.403 44.256C920.936 44.832 921.55 45.12 922.243 45.12ZM931.998 43.92V39.36H930.558V38.32H931.438C931.865 38.32 932.078 38.0533 932.078 37.52V35.76H933.118V38.32H934.798V39.36H933.118V43.92C933.118 44.72 933.465 45.12 934.158 45.12C934.425 45.12 934.67 45.0827 934.894 45.008C934.905 44.9973 934.947 44.9813 935.022 44.96C935.107 44.928 935.166 44.9013 935.198 44.88V45.92C935.166 45.9413 935.113 45.968 935.038 46C934.963 46.0213 934.91 46.0373 934.878 46.048C934.654 46.1227 934.398 46.16 934.11 46.16C933.438 46.16 932.915 45.968 932.542 45.584C932.179 45.2 931.998 44.6453 931.998 43.92ZM937.172 36.272C937.033 36.1333 936.964 35.9627 936.964 35.76C936.964 35.5573 937.033 35.3867 937.172 35.248C937.31 35.1093 937.481 35.04 937.684 35.04C937.886 35.04 938.057 35.1093 938.196 35.248C938.334 35.3867 938.404 35.5573 938.404 35.76C938.404 35.9627 938.334 36.1333 938.196 36.272C938.057 36.4107 937.886 36.48 937.684 36.48C937.481 36.48 937.31 36.4107 937.172 36.272ZM937.124 46V38.32H938.244V46H937.124ZM940.811 49.36V38.32H941.931V39.44C942.113 39.1947 942.331 38.9813 942.587 38.8C943.163 38.3733 943.825 38.16 944.571 38.16C945.627 38.16 946.518 38.5387 947.243 39.296C947.969 40.0533 948.331 41.008 948.331 42.16C948.331 43.312 947.969 44.2667 947.243 45.024C946.518 45.7813 945.627 46.16 944.571 46.16C943.825 46.16 943.163 45.9467 942.587 45.52C942.331 45.3387 942.113 45.1253 941.931 44.88V49.36H940.811ZM944.571 45.12C945.307 45.12 945.931 44.8427 946.443 44.288C946.955 43.7333 947.211 43.024 947.211 42.16C947.211 41.296 946.955 40.5867 946.443 40.032C945.931 39.4773 945.307 39.2 944.571 39.2C943.878 39.2 943.265 39.488 942.731 40.064C942.198 40.64 941.931 41.3387 941.931 42.16C941.931 42.9813 942.198 43.68 942.731 44.256C943.265 44.832 943.878 45.12 944.571 45.12ZM949.607 44.8L950.407 44C950.556 44.2133 950.727 44.4 950.919 44.56C951.335 44.9333 951.831 45.12 952.407 45.12C952.951 45.12 953.367 45.0027 953.655 44.768C953.943 44.5227 954.087 44.2133 954.087 43.84C954.087 43.52 953.943 43.264 953.655 43.072C953.367 42.8693 953.02 42.7093 952.615 42.592C952.21 42.4747 951.804 42.3467 951.399 42.208C950.994 42.0587 950.647 41.8293 950.359 41.52C950.071 41.2107 949.927 40.8107 949.927 40.32C949.927 39.744 950.167 39.2427 950.647 38.816C951.127 38.3787 951.74 38.16 952.487 38.16C953.116 38.16 953.73 38.336 954.327 38.688C954.583 38.8373 954.796 39.008 954.967 39.2L954.167 40C954.039 39.84 953.9 39.7067 953.751 39.6C953.324 39.3333 952.903 39.2 952.487 39.2C952.06 39.2 951.714 39.312 951.447 39.536C951.18 39.76 951.047 40.0213 951.047 40.32C951.047 40.6293 951.191 40.88 951.479 41.072C951.767 41.2533 952.114 41.4027 952.519 41.52C952.924 41.6267 953.33 41.7547 953.735 41.904C954.14 42.0427 954.487 42.2773 954.775 42.608C955.063 42.928 955.207 43.3387 955.207 43.84C955.207 44.5013 954.951 45.056 954.439 45.504C953.938 45.9413 953.26 46.16 952.407 46.16C951.607 46.16 950.898 45.936 950.279 45.488C950.002 45.296 949.778 45.0667 949.607 44.8ZM961.201 43.92V39.36H959.761V38.32H960.641C961.068 38.32 961.281 38.0533 961.281 37.52V35.76H962.321V38.32H964.001V39.36H962.321V43.92C962.321 44.72 962.668 45.12 963.361 45.12C963.628 45.12 963.873 45.0827 964.097 45.008C964.108 44.9973 964.151 44.9813 964.225 44.96C964.311 44.928 964.369 44.9013 964.401 44.88V45.92C964.369 45.9413 964.316 45.968 964.241 46C964.167 46.0213 964.113 46.0373 964.081 46.048C963.857 46.1227 963.601 46.16 963.313 46.16C962.641 46.16 962.119 45.968 961.745 45.584C961.383 45.2 961.201 44.6453 961.201 43.92ZM972.299 45.008C971.541 45.776 970.619 46.16 969.531 46.16C968.443 46.16 967.515 45.776 966.747 45.008C965.989 44.2293 965.611 43.28 965.611 42.16C965.611 41.04 965.989 40.096 966.747 39.328C967.515 38.5493 968.443 38.16 969.531 38.16C970.619 38.16 971.541 38.5493 972.299 39.328C973.067 40.096 973.451 41.04 973.451 42.16C973.451 43.28 973.067 44.2293 972.299 45.008ZM967.547 44.256C968.101 44.832 968.763 45.12 969.531 45.12C970.299 45.12 970.955 44.8373 971.499 44.272C972.053 43.696 972.331 42.992 972.331 42.16C972.331 41.328 972.053 40.6293 971.499 40.064C970.955 39.488 970.299 39.2 969.531 39.2C968.763 39.2 968.101 39.488 967.547 40.064C967.003 40.6293 966.731 41.328 966.731 42.16C966.731 42.9813 967.003 43.68 967.547 44.256ZM978.891 46V34.8H980.011V39.44C980.161 39.216 980.363 39.0027 980.619 38.8C981.195 38.3733 981.819 38.16 982.491 38.16C983.419 38.16 984.171 38.4587 984.747 39.056C985.323 39.6533 985.611 40.448 985.611 41.44V46H984.491V41.44C984.491 40.768 984.299 40.2293 983.915 39.824C983.531 39.408 983.03 39.2 982.411 39.2C981.718 39.2 981.142 39.44 980.683 39.92C980.235 40.3893 980.011 41.0027 980.011 41.76V46H978.891ZM992.811 46V44.96C992.651 45.184 992.448 45.3867 992.203 45.568C991.637 45.9627 991.013 46.16 990.331 46.16C989.552 46.16 988.901 45.936 988.379 45.488C987.867 45.0293 987.611 44.5067 987.611 43.92C987.611 42.6187 988.357 41.8453 989.851 41.6L992.811 41.12C992.811 40.5547 992.629 40.096 992.267 39.744C991.915 39.3813 991.456 39.2 990.891 39.2C990.336 39.2 989.808 39.3867 989.307 39.76C989.072 39.9627 988.88 40.1493 988.731 40.32L988.011 39.6C988.213 39.3333 988.464 39.0933 988.763 38.88C989.413 38.4 990.123 38.16 990.891 38.16C991.765 38.16 992.491 38.4427 993.067 39.008C993.643 39.5733 993.931 40.2773 993.931 41.12V46H992.811ZM992.811 42.56V42.08L990.171 42.56C989.211 42.7307 988.731 43.184 988.731 43.92C988.731 44.2613 988.869 44.5493 989.147 44.784C989.435 45.008 989.829 45.12 990.331 45.12C991.067 45.12 991.664 44.8853 992.123 44.416C992.581 43.9467 992.811 43.328 992.811 42.56ZM998.407 46L995.287 38.32H996.487L998.967 44.48L1001.45 38.32H1002.65L999.527 46H998.407ZM1009.93 43.84L1010.65 44.56C1010.45 44.8373 1010.18 45.104 1009.83 45.36C1009.09 45.8933 1008.29 46.16 1007.45 46.16C1006.39 46.16 1005.49 45.7707 1004.73 44.992C1003.98 44.2133 1003.61 43.2693 1003.61 42.16C1003.61 41.0507 1003.98 40.1067 1004.73 39.328C1005.48 38.5493 1006.36 38.16 1007.37 38.16C1008.43 38.16 1009.3 38.5227 1009.99 39.248C1010.7 39.9733 1011.05 40.8907 1011.05 42C1011.05 42.0533 1011.03 42.192 1011 42.416L1010.97 42.576L1004.73 42.56C1004.77 43.2533 1005.06 43.856 1005.58 44.368C1006.11 44.8693 1006.74 45.12 1007.45 45.12C1008.1 45.12 1008.71 44.9067 1009.29 44.48C1009.57 44.256 1009.78 44.0427 1009.93 43.84ZM1004.73 41.6H1009.93C1009.85 40.9067 1009.56 40.336 1009.08 39.888C1008.61 39.4293 1008.04 39.2 1007.37 39.2C1006.7 39.2 1006.11 39.4347 1005.61 39.904C1005.11 40.3733 1004.82 40.9387 1004.73 41.6ZM1016.81 46V39.36H1015.61V38.32H1016.81V36.88C1016.81 36.1653 1016.99 35.616 1017.35 35.232C1017.72 34.8373 1018.23 34.64 1018.89 34.64C1019.14 34.64 1019.41 34.6827 1019.69 34.768C1019.72 34.7787 1019.82 34.816 1020.01 34.88V35.92L1019.7 35.808C1019.45 35.7227 1019.2 35.68 1018.97 35.68C1018.27 35.68 1017.93 36.08 1017.93 36.88V38.32H1019.77V39.36H1017.93V46H1016.81ZM1027.66 45.008C1026.9 45.776 1025.98 46.16 1024.89 46.16C1023.8 46.16 1022.87 45.776 1022.11 45.008C1021.35 44.2293 1020.97 43.28 1020.97 42.16C1020.97 41.04 1021.35 40.096 1022.11 39.328C1022.87 38.5493 1023.8 38.16 1024.89 38.16C1025.98 38.16 1026.9 38.5493 1027.66 39.328C1028.43 40.096 1028.81 41.04 1028.81 42.16C1028.81 43.28 1028.43 44.2293 1027.66 45.008ZM1022.91 44.256C1023.46 44.832 1024.12 45.12 1024.89 45.12C1025.66 45.12 1026.31 44.8373 1026.86 44.272C1027.41 43.696 1027.69 42.992 1027.69 42.16C1027.69 41.328 1027.41 40.6293 1026.86 40.064C1026.31 39.488 1025.66 39.2 1024.89 39.2C1024.12 39.2 1023.46 39.488 1022.91 40.064C1022.36 40.6293 1022.09 41.328 1022.09 42.16C1022.09 42.9813 1022.36 43.68 1022.91 44.256ZM1030.81 46V38.32H1031.93V39.36C1032.13 39.1253 1032.34 38.928 1032.56 38.768C1033.13 38.3627 1033.78 38.16 1034.49 38.16H1034.81V39.28H1034.33C1033.67 39.28 1033.1 39.5093 1032.64 39.968C1032.17 40.4267 1031.93 41.024 1031.93 41.76V46H1030.81ZM1040.01 43.92V39.36H1038.57V38.32H1039.45C1039.88 38.32 1040.09 38.0533 1040.09 37.52V35.76H1041.13V38.32H1042.81V39.36H1041.13V43.92C1041.13 44.72 1041.48 45.12 1042.17 45.12C1042.44 45.12 1042.69 45.0827 1042.91 45.008C1042.92 44.9973 1042.96 44.9813 1043.04 44.96C1043.12 44.928 1043.18 44.9013 1043.21 44.88V45.92C1043.18 45.9413 1043.13 45.968 1043.05 46C1042.98 46.0213 1042.93 46.0373 1042.89 46.048C1042.67 46.1227 1042.41 46.16 1042.13 46.16C1041.45 46.16 1040.93 45.968 1040.56 45.584C1040.2 45.2 1040.01 44.6453 1040.01 43.92ZM1045.22 46V34.8H1046.34V39.44C1046.49 39.216 1046.69 39.0027 1046.95 38.8C1047.52 38.3733 1048.15 38.16 1048.82 38.16C1049.75 38.16 1050.5 38.4587 1051.08 39.056C1051.65 39.6533 1051.94 40.448 1051.94 41.44V46H1050.82V41.44C1050.82 40.768 1050.63 40.2293 1050.24 39.824C1049.86 39.408 1049.36 39.2 1048.74 39.2C1048.05 39.2 1047.47 39.44 1047.01 39.92C1046.56 40.3893 1046.34 41.0027 1046.34 41.76V46H1045.22ZM1060.26 43.84L1060.98 44.56C1060.78 44.8373 1060.5 45.104 1060.16 45.36C1059.42 45.8933 1058.62 46.16 1057.78 46.16C1056.72 46.16 1055.82 45.7707 1055.06 44.992C1054.31 44.2133 1053.94 43.2693 1053.94 42.16C1053.94 41.0507 1054.31 40.1067 1055.06 39.328C1055.81 38.5493 1056.69 38.16 1057.7 38.16C1058.75 38.16 1059.63 38.5227 1060.32 39.248C1061.03 39.9733 1061.38 40.8907 1061.38 42C1061.38 42.0533 1061.36 42.192 1061.33 42.416L1061.3 42.576L1055.06 42.56C1055.1 43.2533 1055.38 43.856 1055.91 44.368C1056.44 44.8693 1057.06 45.12 1057.78 45.12C1058.43 45.12 1059.04 44.9067 1059.62 44.48C1059.9 44.256 1060.11 44.0427 1060.26 43.84ZM1055.06 41.6H1060.26C1060.17 40.9067 1059.89 40.336 1059.41 39.888C1058.94 39.4293 1058.37 39.2 1057.7 39.2C1057.03 39.2 1056.44 39.4347 1055.94 39.904C1055.44 40.3733 1055.14 40.9387 1055.06 41.6ZM900.32 69L904.96 57.8H906.08L910.72 69H909.44L908.16 65.88H902.88L901.6 69H900.32ZM903.36 64.76H907.68L905.52 59.48L903.36 64.76ZM912.327 69V61.32H913.447V62.44C913.596 62.216 913.799 62.0027 914.055 61.8C914.631 61.3733 915.255 61.16 915.927 61.16C916.855 61.16 917.607 61.4587 918.183 62.056C918.759 62.6533 919.047 63.448 919.047 64.44V69H917.927V64.44C917.927 63.768 917.735 63.2293 917.351 62.824C916.967 62.408 916.466 62.2 915.847 62.2C915.154 62.2 914.578 62.44 914.119 62.92C913.671 63.3893 913.447 64.0027 913.447 64.76V69H912.327ZM921.608 69V61.32H922.728V62.44C922.877 62.216 923.08 62.0027 923.336 61.8C923.912 61.3733 924.536 61.16 925.208 61.16C926.136 61.16 926.888 61.4587 927.464 62.056C928.04 62.6533 928.328 63.448 928.328 64.44V69H927.208V64.44C927.208 63.768 927.016 63.2293 926.632 62.824C926.248 62.408 925.747 62.2 925.128 62.2C924.435 62.2 923.859 62.44 923.4 62.92C922.952 63.3893 922.728 64.0027 922.728 64.76V69H921.608ZM930.937 59.272C930.799 59.1333 930.729 58.9627 930.729 58.76C930.729 58.5573 930.799 58.3867 930.937 58.248C931.076 58.1093 931.247 58.04 931.449 58.04C931.652 58.04 931.823 58.1093 931.961 58.248C932.1 58.3867 932.169 58.5573 932.169 58.76C932.169 58.9627 932.1 59.1333 931.961 59.272C931.823 59.4107 931.652 59.48 931.449 59.48C931.247 59.48 931.076 59.4107 930.937 59.272ZM930.889 69V61.32H932.009V69H930.889ZM936.657 69L933.537 61.32H934.737L937.217 67.48L939.697 61.32H940.897L937.777 69H936.657ZM948.181 66.84L948.901 67.56C948.698 67.8373 948.426 68.104 948.085 68.36C947.338 68.8933 946.543 69.16 945.701 69.16C944.645 69.16 943.738 68.7707 942.981 67.992C942.234 67.2133 941.861 66.2693 941.861 65.16C941.861 64.0507 942.234 63.1067 942.981 62.328C943.727 61.5493 944.607 61.16 945.621 61.16C946.677 61.16 947.551 61.5227 948.245 62.248C948.949 62.9733 949.301 63.8907 949.301 65C949.301 65.0533 949.285 65.192 949.253 65.416L949.221 65.576L942.981 65.56C943.023 66.2533 943.306 66.856 943.829 67.368C944.362 67.8693 944.986 68.12 945.701 68.12C946.351 68.12 946.965 67.9067 947.541 67.48C947.818 67.256 948.031 67.0427 948.181 66.84ZM942.981 64.6H948.181C948.095 63.9067 947.813 63.336 947.333 62.888C946.863 62.4293 946.293 62.2 945.621 62.2C944.949 62.2 944.362 62.4347 943.861 62.904C943.359 63.3733 943.066 63.9387 942.981 64.6ZM951.296 69V61.32H952.416V62.36C952.618 62.1253 952.826 61.928 953.04 61.768C953.616 61.3627 954.261 61.16 954.976 61.16H955.296V62.28H954.816C954.154 62.28 953.589 62.5093 953.12 62.968C952.65 63.4267 952.416 64.024 952.416 64.76V69H951.296ZM956.091 67.8L956.891 67C957.041 67.2133 957.211 67.4 957.403 67.56C957.819 67.9333 958.315 68.12 958.891 68.12C959.435 68.12 959.851 68.0027 960.139 67.768C960.427 67.5227 960.571 67.2133 960.571 66.84C960.571 66.52 960.427 66.264 960.139 66.072C959.851 65.8693 959.505 65.7093 959.099 65.592C958.694 65.4747 958.289 65.3467 957.883 65.208C957.478 65.0587 957.131 64.8293 956.843 64.52C956.555 64.2107 956.411 63.8107 956.411 63.32C956.411 62.744 956.651 62.2427 957.131 61.816C957.611 61.3787 958.225 61.16 958.971 61.16C959.601 61.16 960.214 61.336 960.811 61.688C961.067 61.8373 961.281 62.008 961.451 62.2L960.651 63C960.523 62.84 960.385 62.7067 960.235 62.6C959.809 62.3333 959.387 62.2 958.971 62.2C958.545 62.2 958.198 62.312 957.931 62.536C957.665 62.76 957.531 63.0213 957.531 63.32C957.531 63.6293 957.675 63.88 957.963 64.072C958.251 64.2533 958.598 64.4027 959.003 64.52C959.409 64.6267 959.814 64.7547 960.219 64.904C960.625 65.0427 960.971 65.2773 961.259 65.608C961.547 65.928 961.691 66.3387 961.691 66.84C961.691 67.5013 961.435 68.056 960.923 68.504C960.422 68.9413 959.745 69.16 958.891 69.16C958.091 69.16 957.382 68.936 956.763 68.488C956.486 68.296 956.262 68.0667 956.091 67.8ZM968.326 69V67.96C968.166 68.184 967.964 68.3867 967.718 68.568C967.153 68.9627 966.529 69.16 965.846 69.16C965.068 69.16 964.417 68.936 963.894 68.488C963.382 68.0293 963.126 67.5067 963.126 66.92C963.126 65.6187 963.873 64.8453 965.366 64.6L968.326 64.12C968.326 63.5547 968.145 63.096 967.782 62.744C967.43 62.3813 966.972 62.2 966.406 62.2C965.852 62.2 965.324 62.3867 964.822 62.76C964.588 62.9627 964.396 63.1493 964.246 63.32L963.526 62.6C963.729 62.3333 963.98 62.0933 964.278 61.88C964.929 61.4 965.638 61.16 966.406 61.16C967.281 61.16 968.006 61.4427 968.582 62.008C969.158 62.5733 969.446 63.2773 969.446 64.12V69H968.326ZM968.326 65.56V65.08L965.686 65.56C964.726 65.7307 964.246 66.184 964.246 66.92C964.246 67.2613 964.385 67.5493 964.662 67.784C964.95 68.008 965.345 68.12 965.846 68.12C966.582 68.12 967.18 67.8853 967.638 67.416C968.097 66.9467 968.326 66.328 968.326 65.56ZM971.999 69V61.32H973.119V62.36C973.321 62.1253 973.529 61.928 973.743 61.768C974.319 61.3627 974.964 61.16 975.679 61.16H975.999V62.28H975.519C974.857 62.28 974.292 62.5093 973.823 62.968C973.353 63.4267 973.119 64.024 973.119 64.76V69H971.999ZM977.267 72.2V71.16C977.363 71.2027 977.448 71.2293 977.523 71.24C977.704 71.2933 977.886 71.32 978.067 71.32C978.728 71.32 979.208 70.92 979.507 70.12L979.907 69L976.787 61.32H977.987L980.467 67.56L982.947 61.32H984.147L980.627 70.12C980.307 70.9307 979.96 71.5067 979.587 71.848C979.224 72.1893 978.771 72.36 978.227 72.36C977.982 72.36 977.752 72.3333 977.539 72.28C977.464 72.2693 977.374 72.2427 977.267 72.2ZM988.158 67.48L988.878 66.664C989.08 66.9307 989.326 67.16 989.614 67.352C990.232 67.8107 991 68.04 991.918 68.04C992.739 68.04 993.368 67.8533 993.806 67.48C994.254 67.096 994.478 66.5893 994.478 65.96C994.478 65.576 994.366 65.2507 994.142 64.984C993.918 64.7173 993.624 64.5093 993.262 64.36C992.91 64.2 992.515 64.0613 992.078 63.944C991.651 63.816 991.219 63.6773 990.782 63.528C990.355 63.368 989.96 63.1813 989.598 62.968C989.246 62.7547 988.958 62.456 988.734 62.072C988.51 61.688 988.398 61.224 988.398 60.68C988.398 59.8373 988.728 59.1227 989.39 58.536C990.051 57.9387 990.92 57.64 991.998 57.64C992.904 57.64 993.72 57.88 994.446 58.36C994.755 58.5627 995.032 58.8027 995.278 59.08L994.478 59.88C994.328 59.6987 994.12 59.512 993.854 59.32C993.256 58.9467 992.638 58.76 991.998 58.76C991.262 58.76 990.675 58.9467 990.238 59.32C989.811 59.6933 989.598 60.1467 989.598 60.68C989.598 61.064 989.71 61.3947 989.934 61.672C990.158 61.9387 990.446 62.1467 990.798 62.296C991.16 62.4453 991.555 62.584 991.982 62.712C992.419 62.8293 992.851 62.968 993.278 63.128C993.715 63.2773 994.11 63.4587 994.462 63.672C994.824 63.8853 995.118 64.184 995.342 64.568C995.566 64.952 995.678 65.416 995.678 65.96C995.678 66.9093 995.342 67.6827 994.67 68.28C994.008 68.8667 993.091 69.16 991.918 69.16C990.819 69.16 989.87 68.8827 989.07 68.328C988.707 68.0933 988.403 67.8107 988.158 67.48ZM1002.4 69V67.96C1002.24 68.184 1002.04 68.3867 1001.8 68.568C1001.23 68.9627 1000.61 69.16 999.924 69.16C999.146 69.16 998.495 68.936 997.972 68.488C997.46 68.0293 997.204 67.5067 997.204 66.92C997.204 65.6187 997.951 64.8453 999.444 64.6L1002.4 64.12C1002.4 63.5547 1002.22 63.096 1001.86 62.744C1001.51 62.3813 1001.05 62.2 1000.48 62.2C999.93 62.2 999.402 62.3867 998.9 62.76C998.666 62.9627 998.474 63.1493 998.324 63.32L997.604 62.6C997.807 62.3333 998.058 62.0933 998.356 61.88C999.007 61.4 999.716 61.16 1000.48 61.16C1001.36 61.16 1002.08 61.4427 1002.66 62.008C1003.24 62.5733 1003.52 63.2773 1003.52 64.12V69H1002.4ZM1002.4 65.56V65.08L999.764 65.56C998.804 65.7307 998.324 66.184 998.324 66.92C998.324 67.2613 998.463 67.5493 998.74 67.784C999.028 68.008 999.423 68.12 999.924 68.12C1000.66 68.12 1001.26 67.8853 1001.72 67.416C1002.18 66.9467 1002.4 66.328 1002.4 65.56ZM1006.16 69V57.8H1007.28V69H1006.16ZM1015.68 66.84L1016.4 67.56C1016.2 67.8373 1015.93 68.104 1015.58 68.36C1014.84 68.8933 1014.04 69.16 1013.2 69.16C1012.14 69.16 1011.24 68.7707 1010.48 67.992C1009.73 67.2133 1009.36 66.2693 1009.36 65.16C1009.36 64.0507 1009.73 63.1067 1010.48 62.328C1011.23 61.5493 1012.11 61.16 1013.12 61.16C1014.18 61.16 1015.05 61.5227 1015.74 62.248C1016.45 62.9733 1016.8 63.8907 1016.8 65C1016.8 65.0533 1016.78 65.192 1016.75 65.416L1016.72 65.576L1010.48 65.56C1010.52 66.2533 1010.81 66.856 1011.33 67.368C1011.86 67.8693 1012.49 68.12 1013.2 68.12C1013.85 68.12 1014.46 67.9067 1015.04 67.48C1015.32 67.256 1015.53 67.0427 1015.68 66.84ZM1010.48 64.6H1015.68C1015.6 63.9067 1015.31 63.336 1014.83 62.888C1014.36 62.4293 1013.79 62.2 1013.12 62.2C1012.45 62.2 1011.86 62.4347 1011.36 62.904C1010.86 63.3733 1010.57 63.9387 1010.48 64.6Z" fill="#4D5257"/>
</svg>
