<svg width="20" height="21" viewBox="0 0 20 21" fill="none" xmlns="http://www.w3.org/2000/svg">
<path d="M17.1056 2.77661H2.89472C2.55296 2.77661 2.27686 3.05272 2.27686 3.39447V17.6053C2.27686 17.9471 2.55296 18.2232 2.89472 18.2232H17.1056C17.4473 18.2232 17.7234 17.9471 17.7234 17.6053V3.39447C17.7234 3.05272 17.4473 2.77661 17.1056 2.77661ZM15.3215 7.28508H14.0877C13.1204 7.28508 12.9331 7.74462 12.9331 8.42041V9.90907H15.2423L14.9411 12.2396H12.9331V18.2232H10.5253V12.2415H8.51148V9.90907H10.5253V8.19064C10.5253 6.1961 11.7437 5.10905 13.5239 5.10905C14.3773 5.10905 15.1091 5.17276 15.3234 5.20173V7.28508H15.3215Z" fill="#819272"/>
</svg>
