<svg width="20" height="21" viewBox="0 0 20 21" fill="none" xmlns="http://www.w3.org/2000/svg">
<path d="M10.0001 7.89645C8.5665 7.89645 7.39658 9.06638 7.39658 10.5C7.39658 11.9336 8.5665 13.1035 10.0001 13.1035C11.4337 13.1035 12.6036 11.9336 12.6036 10.5C12.6036 9.06638 11.4337 7.89645 10.0001 7.89645ZM17.8087 10.5C17.8087 9.42184 17.8185 8.35349 17.7579 7.27731C17.6974 6.02731 17.4122 4.91794 16.4981 4.00388C15.5821 3.08786 14.4747 2.80466 13.2247 2.74411C12.1466 2.68356 11.0782 2.69333 10.002 2.69333C8.92392 2.69333 7.85556 2.68356 6.77939 2.74411C5.52939 2.80466 4.42001 3.08981 3.50595 4.00388C2.58994 4.91989 2.30673 6.02731 2.24619 7.27731C2.18564 8.35544 2.19541 9.4238 2.19541 10.5C2.19541 11.5761 2.18564 12.6465 2.24619 13.7226C2.30673 14.9726 2.59189 16.082 3.50595 16.9961C4.42197 17.9121 5.52939 18.1953 6.77939 18.2558C7.85752 18.3164 8.92587 18.3066 10.002 18.3066C11.0802 18.3066 12.1485 18.3164 13.2247 18.2558C14.4747 18.1953 15.5841 17.9101 16.4981 16.9961C17.4142 16.08 17.6974 14.9726 17.7579 13.7226C17.8204 12.6465 17.8087 11.5781 17.8087 10.5ZM10.0001 14.5058C7.7833 14.5058 5.99423 12.7168 5.99423 10.5C5.99423 8.28317 7.7833 6.49411 10.0001 6.49411C12.2169 6.49411 14.006 8.28317 14.006 10.5C14.006 12.7168 12.2169 14.5058 10.0001 14.5058ZM14.17 7.26559C13.6524 7.26559 13.2345 6.84763 13.2345 6.33005C13.2345 5.81247 13.6524 5.3945 14.17 5.3945C14.6876 5.3945 15.1056 5.81247 15.1056 6.33005C15.1057 6.45295 15.0816 6.57467 15.0347 6.68825C14.9877 6.80182 14.9188 6.90502 14.8319 6.99192C14.745 7.07883 14.6418 7.14773 14.5282 7.19469C14.4146 7.24166 14.2929 7.26575 14.17 7.26559Z" fill="#819272"/>
</svg>
