<svg width="24" height="24" viewBox="0 0 24 24" fill="none" xmlns="http://www.w3.org/2000/svg">
<path d="M9.28139 12C9.28139 12.6962 9.55795 13.3639 10.0502 13.8562C10.5425 14.3484 11.2102 14.625 11.9064 14.625C12.6026 14.625 13.2703 14.3484 13.7625 13.8562C14.2548 13.3639 14.5314 12.6962 14.5314 12C14.5314 11.3038 14.2548 10.6361 13.7625 10.1438C13.2703 9.65156 12.6026 9.375 11.9064 9.375C11.2102 9.375 10.5425 9.65156 10.0502 10.1438C9.55795 10.6361 9.28139 11.3038 9.28139 12ZM22.0829 11.3953C19.8611 6.71484 16.5025 4.35938 12.0001 4.35938C7.49545 4.35938 4.1392 6.71484 1.91732 11.3977C1.8282 11.5864 1.78198 11.7925 1.78198 12.0012C1.78198 12.2099 1.8282 12.416 1.91732 12.6047C4.1392 17.2852 7.49779 19.6406 12.0001 19.6406C16.5048 19.6406 19.8611 17.2852 22.0829 12.6023C22.2634 12.2227 22.2634 11.782 22.0829 11.3953ZM11.9064 16.125C9.62826 16.125 7.78139 14.2781 7.78139 12C7.78139 9.72188 9.62826 7.875 11.9064 7.875C14.1845 7.875 16.0314 9.72188 16.0314 12C16.0314 14.2781 14.1845 16.125 11.9064 16.125Z" fill="#BDBDBD"/>
</svg>
