<svg width="17" height="15" viewBox="0 0 17 15" fill="none" xmlns="http://www.w3.org/2000/svg">
<path d="M10.3268 14.96C10.8227 14.96 11.2984 14.763 11.6491 14.4123C11.9998 14.0616 12.1968 13.586 12.1968 13.09C12.1968 12.594 11.9998 12.1184 11.6491 11.7677C11.2984 11.417 10.8227 11.22 10.3268 11.22C9.83081 11.22 9.35517 11.417 9.00448 11.7677C8.65379 12.1184 8.45677 12.594 8.45677 13.09C8.45677 13.586 8.65379 14.0616 9.00448 14.4123C9.35517 14.763 9.83081 14.96 10.3268 14.96ZM3.78177 14.96C4.27772 14.96 4.75336 14.763 5.10406 14.4123C5.45475 14.0616 5.65177 13.586 5.65177 13.09C5.65177 12.594 5.45475 12.1184 5.10406 11.7677C4.75336 11.417 4.27772 11.22 3.78177 11.22C3.28581 11.22 2.81017 11.417 2.45948 11.7677C2.10878 12.1184 1.91177 12.594 1.91177 13.09C1.91177 13.586 2.10878 14.0616 2.45948 14.4123C2.81017 14.763 3.28581 14.96 3.78177 14.96ZM15.9723 1.798C16.2057 1.79048 16.427 1.69246 16.5895 1.52469C16.7519 1.35691 16.8428 1.13254 16.8428 0.899003C16.8428 0.665469 16.7519 0.44109 16.5895 0.273317C16.427 0.105543 16.2057 0.00752844 15.9723 0H14.8961C14.0527 0 13.3234 0.58531 13.1402 1.40811L11.9686 6.68338C11.7854 7.50618 11.0561 8.09149 10.2127 8.09149H3.18898L1.84071 2.69654H10.5783C10.8095 2.68599 11.0277 2.58671 11.1876 2.41936C11.3475 2.25201 11.4368 2.02946 11.4368 1.798C11.4368 1.56655 11.3475 1.344 11.1876 1.17665C11.0277 1.0093 10.8095 0.910021 10.5783 0.89947H1.84071C1.56738 0.899389 1.29762 0.961627 1.05195 1.08145C0.806286 1.20128 0.591173 1.37554 0.422964 1.59098C0.254755 1.80643 0.137878 2.05738 0.0812225 2.32478C0.0245647 2.59218 0.0296192 2.86897 0.0959969 3.13412L1.44427 8.5272C1.54147 8.91634 1.76599 9.26181 2.08213 9.50866C2.39828 9.75551 2.78788 9.88956 3.18898 9.88949H10.2127C11.031 9.8896 11.8249 9.61061 12.4632 9.09858C13.1016 8.58655 13.5462 7.87212 13.7236 7.07327L14.8961 1.798H15.9723Z" fill="#10151A"/>
</svg>
