<svg width="22" height="16" viewBox="0 0 22 16" fill="none" xmlns="http://www.w3.org/2000/svg">
<path d="M11 14.2942C9.89111 14.9457 8.62977 15.2927 7.34366 15.3001C6.05755 15.3074 4.79232 14.9749 3.67606 14.336C2.55979 13.6972 1.63212 12.7748 0.98693 11.6622C0.341744 10.5496 0.00195313 9.28633 0.00195312 8.0002C0.00195313 6.71406 0.341744 5.45076 0.98693 4.33816C1.63212 3.22557 2.55979 2.30317 3.67606 1.66435C4.79232 1.02554 6.05755 0.692967 7.34366 0.700314C8.62977 0.707662 9.89111 1.05466 11 1.7062C12.1089 1.05466 13.3702 0.707662 14.6563 0.700314C15.9425 0.692967 17.2077 1.02554 18.3239 1.66435C19.4402 2.30317 20.3679 3.22557 21.0131 4.33816C21.6583 5.45076 21.9981 6.71406 21.9981 8.0002C21.9981 9.28633 21.6583 10.5496 21.0131 11.6622C20.3679 12.7748 19.4402 13.6972 18.3239 14.336C17.2077 14.9749 15.9425 15.3074 14.6563 15.3001C13.3702 15.2927 12.1089 14.9457 11 14.2942ZM12.702 12.9102C13.5067 13.2372 14.3794 13.3615 15.2434 13.272C16.1074 13.1825 16.9361 12.8821 17.6567 12.3971C18.3773 11.9122 18.9676 11.2575 19.3758 10.4908C19.784 9.72407 19.9975 8.86879 19.9975 8.0002C19.9975 7.1316 19.784 6.27632 19.3758 5.5096C18.9676 4.74289 18.3773 4.08824 17.6567 3.60327C16.9361 3.11829 16.1074 2.81785 15.2434 2.72838C14.3794 2.63892 13.5067 2.76317 12.702 3.0902C13.9255 4.43246 14.6026 6.18395 14.6 8.0002C14.6 9.8902 13.881 11.6142 12.702 12.9102ZM9.298 3.0902C8.49332 2.76317 7.6206 2.63892 6.75662 2.72838C5.89265 2.81785 5.0639 3.11829 4.34331 3.60327C3.62271 4.08824 3.03236 4.74289 2.62418 5.5096C2.21601 6.27632 2.00253 7.1316 2.00253 8.0002C2.00253 8.86879 2.21601 9.72407 2.62418 10.4908C3.03236 11.2575 3.62271 11.9122 4.34331 12.3971C5.0639 12.8821 5.89265 13.1825 6.75662 13.272C7.6206 13.3615 8.49332 13.2372 9.298 12.9102C8.07446 11.5679 7.3974 9.81644 7.4 8.0002C7.4 6.1102 8.119 4.3862 9.298 3.0902ZM11 4.2052C10.4928 4.69844 10.0899 5.2885 9.81504 5.94039C9.5402 6.59229 9.39906 7.29273 9.4 8.0002C9.4 9.4882 10.013 10.8322 11 11.7952C11.5072 11.302 11.9101 10.7119 12.185 10.06C12.4598 9.4081 12.6009 8.70766 12.6 8.0002C12.6009 7.29273 12.4598 6.59229 12.185 5.94039C11.9101 5.2885 11.5072 4.69844 11 4.2052Z" fill="white"/>
</svg>
