<svg width="13" height="13" viewBox="0 0 13 13" fill="none" xmlns="http://www.w3.org/2000/svg">
<path fill-rule="evenodd" clip-rule="evenodd" d="M6.48064 8.47042L10.1697 12.2475C10.5398 12.6293 10.7806 12.6332 11.1574 12.2475L11.8976 11.4895C12.2602 11.1183 12.2848 10.8747 11.8976 10.4783L7.99196 6.48003L11.8979 2.48179C12.2637 2.10601 12.2709 1.8524 11.8979 1.47021L11.1578 0.712592C10.7738 0.319358 10.5366 0.337524 10.1701 0.712592L6.48064 4.48964L2.79158 0.712948C2.42506 0.33788 2.18783 0.319714 1.80386 0.712948L1.0637 1.47057C0.690408 1.85276 0.697176 2.10637 1.0637 2.48215L4.96933 6.48003L1.0637 10.4783C0.676517 10.8747 0.697176 11.1183 1.0637 11.4895L1.8035 12.2475C2.17715 12.6332 2.41793 12.6293 2.79122 12.2475L6.48064 8.47042Z" fill="#10151A"/>
</svg>
