<svg width="18" height="18" viewBox="0 0 18 18" fill="none" xmlns="http://www.w3.org/2000/svg">
<path d="M17.783 7.35604H9.45601V10.807H14.248C13.802 13 11.935 14.26 9.45601 14.26C8.76235 14.2612 8.07527 14.1255 7.4342 13.8605C6.79312 13.5956 6.21065 13.2067 5.7202 12.7161C5.22975 12.2256 4.84097 11.6431 4.57615 11.0019C4.31134 10.3608 4.1757 9.6737 4.17701 8.98003C4.17583 8.28645 4.31156 7.59946 4.57644 6.95845C4.84131 6.31743 5.23012 5.73501 5.72055 5.24457C6.21099 4.75414 6.79341 4.36533 7.43443 4.10046C8.07544 3.83559 8.76243 3.69985 9.45601 3.70104C10.715 3.70104 11.853 4.14804 12.746 4.87904L15.346 2.28004C13.762 0.899035 11.731 0.0470351 9.45601 0.0470351C8.28182 0.043603 7.11854 0.272345 6.03306 0.720105C4.94759 1.16786 3.96135 1.82581 3.13107 2.65609C2.30079 3.48637 1.64284 4.47261 1.19508 5.55808C0.747324 6.64356 0.518582 7.80684 0.522014 8.98104C0.518449 10.1553 0.7471 11.3186 1.19481 12.4041C1.64253 13.4897 2.30046 14.476 3.13077 15.3063C3.96108 16.1366 4.94737 16.7945 6.03291 17.2422C7.11844 17.6899 8.28178 17.9186 9.45601 17.915C13.923 17.915 17.985 14.666 17.985 8.98104C17.985 8.45304 17.904 7.88404 17.783 7.35604Z" fill="black"/>
</svg>
