<svg width="28" height="25" viewBox="0 0 28 25" fill="none" xmlns="http://www.w3.org/2000/svg">
<path d="M13.5491 4.74184L13.5929 4.822L13.6368 4.74184C14.0829 3.92663 14.8398 2.8072 15.9753 1.929C17.1589 1.01364 18.5007 0.55 19.9646 0.55C24.05 0.55 27.1358 3.89099 27.1358 8.3326C27.1358 10.7293 26.1744 12.7495 24.478 14.7966C22.7802 16.8452 20.3501 18.9163 17.4176 21.4153C16.4214 22.2643 15.2926 23.2263 14.1192 24.2525L14.1192 24.2525C13.9737 24.3798 13.7869 24.45 13.5929 24.45C13.399 24.45 13.2121 24.3798 13.0666 24.2524L13.0666 24.2524C11.8935 23.2266 10.7649 22.2647 9.76941 21.4163L9.76884 21.4159C6.83602 18.9166 4.40576 16.8453 2.70795 14.7967C1.01141 12.7495 0.05 10.7293 0.05 8.3326C0.05 3.89099 3.13586 0.55 7.22124 0.55C8.68512 0.55 10.0269 1.01364 11.2105 1.929C12.346 2.8072 13.103 3.92658 13.5491 4.74184Z" fill="#F1F2F6" stroke="#F1F2F6" stroke-width="0.1"/>
</svg>
