<svg width="6" height="12" viewBox="0 0 6 12" fill="none" xmlns="http://www.w3.org/2000/svg">
<path d="M0.994959 5.86904e-05C1.123 -0.000377128 1.24951 0.0278822 1.3652 0.0827585C1.48088 0.137636 1.5828 0.217736 1.66347 0.317173L5.80308 5.45954C5.92913 5.6129 5.99805 5.80526 5.99805 6.00378C5.99805 6.2023 5.92913 6.39466 5.80308 6.54801L1.51777 11.6904C1.37229 11.8654 1.16324 11.9755 0.936612 11.9964C0.709982 12.0173 0.484334 11.9473 0.309308 11.8018C0.134282 11.6563 0.0242143 11.4473 0.00331933 11.2206C-0.0175757 10.994 0.0524136 10.7684 0.19789 10.5933L4.02896 5.99949L0.32645 1.40564C0.221646 1.27984 0.155072 1.12664 0.134606 0.96419C0.11414 0.801734 0.140637 0.636816 0.210964 0.488948C0.281292 0.341081 0.392504 0.216455 0.531442 0.129815C0.670381 0.0431733 0.831231 -0.00185439 0.994959 5.86904e-05Z" fill="#819272"/>
</svg>
