<svg width="18" height="21" viewBox="0 0 18 21" fill="none" xmlns="http://www.w3.org/2000/svg">
<path d="M5.495 18.667H7.046L7.584 15.291C7.68851 14.6315 8.02488 14.0308 8.53264 13.5971C9.0404 13.1634 9.68623 12.9251 10.354 12.925H10.854C13.531 12.925 14.914 11.942 15.404 9.422C15.612 8.356 15.521 7.692 15.233 7.32C14.026 10.374 11.443 11.48 8.271 11.48H7.387C7.003 11.48 6.593 11.689 6.535 12.06L5.495 18.667ZM0.550997 18.373C0.471386 18.373 0.392729 18.3557 0.320439 18.3223C0.24815 18.289 0.183945 18.2404 0.132244 18.1798C0.0805442 18.1193 0.0425765 18.0483 0.0209549 17.9716C-0.000666659 17.895 -0.00542868 17.8146 0.00699695 17.736L2.68 0.776001C2.71432 0.559432 2.82486 0.362242 2.99171 0.219966C3.15855 0.077689 3.37073 -0.000318229 3.59 9.75765e-07H10.014C12.226 9.75765e-07 13.956 0.467001 14.913 1.558C15.783 2.548 16.036 3.642 15.784 5.25C16.144 5.441 16.452 5.675 16.7 5.956C17.518 6.889 17.678 8.216 17.368 9.806C16.628 13.611 14.092 14.926 10.854 14.926H10.354C10.1625 14.9263 9.97741 14.9948 9.83189 15.1192C9.68637 15.2436 9.58997 15.4159 9.56 15.605L8.858 19.988C8.82822 20.1772 8.73188 20.3496 8.58631 20.474C8.44075 20.5985 8.25553 20.6669 8.064 20.667H3.72C3.65024 20.667 3.58131 20.6519 3.51796 20.6227C3.4546 20.5934 3.39833 20.5509 3.353 20.4978C3.30767 20.4448 3.27437 20.3826 3.25538 20.3155C3.23639 20.2484 3.23216 20.1779 3.243 20.109L3.517 18.373H0.549997H0.550997ZM7.387 9.479H8.271C11.461 9.479 13.166 8.267 13.754 5.25C13.774 5.149 13.791 5.047 13.807 4.941C13.973 3.881 13.857 3.388 13.409 2.878C12.944 2.348 11.806 2 10.013 2H4.513L2.246 16.373H3.807L4.537 11.745L4.544 11.746C4.69086 11.1019 5.05216 10.5268 5.56869 10.1149C6.08523 9.703 6.72635 9.47879 7.387 9.479Z" fill="white"/>
</svg>
