<svg width="17" height="17" viewBox="0 0 17 17" fill="none" xmlns="http://www.w3.org/2000/svg">
<path d="M2.78751 2.78157C1.62883 3.93854 0.954917 5.49379 0.903103 7.13039C0.851289 8.76699 1.42547 10.3618 2.50865 11.5897C3.59182 12.8177 5.10246 13.5864 6.73273 13.7392C8.33328 13.8893 9.93086 13.4346 11.2117 12.4667L14.5429 15.7987L14.5429 15.7987C14.6258 15.8815 14.7241 15.9473 14.8323 15.9921C14.9406 16.0369 15.0566 16.06 15.1737 16.06C15.2909 16.06 15.4069 16.0369 15.5151 15.9921C15.6234 15.9473 15.7217 15.8815 15.8045 15.7987C15.8874 15.7159 15.9531 15.6175 15.9979 15.5093C16.0428 15.4011 16.0658 15.285 16.0658 15.1679C16.0658 15.0507 16.0428 14.9347 15.9979 14.8265C15.9531 14.7183 15.8874 14.6199 15.8045 14.5371L15.8045 14.5371L12.4728 11.2061C13.4381 9.92513 13.8907 8.32862 13.7398 6.72959C13.5861 5.1007 12.8176 3.59155 11.5907 2.50917C10.3637 1.42678 8.77052 0.852477 7.13517 0.903081C5.49982 0.953686 3.94518 1.62539 2.78751 2.78157ZM2.78751 2.78157L2.85817 2.85233L2.78751 2.78157ZM10.6255 4.04382C11.0631 4.47432 11.4111 4.98719 11.6495 5.55285C11.8878 6.11851 12.0118 6.72577 12.0143 7.3396C12.0168 7.95343 11.8978 8.56168 11.664 9.12926C11.4303 9.69685 11.0865 10.2125 10.6524 10.6466C10.2184 11.0806 9.70269 11.4244 9.1351 11.6582C8.56752 11.8919 7.95927 12.011 7.34544 12.0085C6.73161 12.006 6.12435 11.882 5.55869 11.6436C4.99303 11.4053 4.48016 11.0573 4.04966 10.6197C3.18935 9.74526 2.70942 8.56629 2.71441 7.3396C2.71941 6.11292 3.20892 4.9379 4.07633 4.07049C4.94373 3.20308 6.11875 2.71357 7.34544 2.70857C8.57213 2.70358 9.75109 3.18351 10.6255 4.04382Z" fill="#10151A" stroke="#10151A" stroke-width="0.2"/>
</svg>
