<svg width="15" height="17" viewBox="0 0 15 17" fill="none" xmlns="http://www.w3.org/2000/svg">
<path d="M7.41152 7.41143C6.56132 7.41143 5.74593 7.07368 5.14474 6.4725C4.54355 5.87131 4.20581 5.05592 4.20581 4.20571C4.20581 3.35551 4.54355 2.54012 5.14474 1.93893C5.74593 1.33774 6.56132 1 7.41152 1C8.26173 1 9.07712 1.33774 9.67831 1.93893C10.2795 2.54012 10.6172 3.35551 10.6172 4.20571C10.6172 5.05592 10.2795 5.87131 9.67831 6.4725C9.07712 7.07368 8.26173 7.41143 7.41152 7.41143Z" stroke="#10151A" stroke-width="2" stroke-linecap="round"/>
<path d="M1 15.96V14.8915C1 13.7579 1.45033 12.6707 2.25191 11.8691C3.05349 11.0675 4.14067 10.6172 5.27429 10.6172H9.54857C10.6822 10.6172 11.7694 11.0675 12.5709 11.8691C13.3725 12.6707 13.8229 13.7579 13.8229 14.8915V15.96" stroke="#10151A" stroke-width="2" stroke-linecap="round"/>
</svg>
