<svg width="76" height="61" viewBox="0 0 76 61" fill="none" xmlns="http://www.w3.org/2000/svg">
<g clip-path="url(#clip0)">
<path d="M30 1C13.9453 1 0.9375 14.0078 0.9375 30.0625C0.9375 46.1172 13.9453 59.125 30 59.125C46.0547 59.125 59.0625 46.1172 59.0625 30.0625C59.0625 14.0078 46.0547 1 30 1ZM39.375 20.6875C41.4492 20.6875 43.125 22.3633 43.125 24.4375C43.125 26.5117 41.4492 28.1875 39.375 28.1875C37.3008 28.1875 35.625 26.5117 35.625 24.4375C35.625 22.3633 37.3008 20.6875 39.375 20.6875ZM20.625 20.6875C22.6992 20.6875 24.375 22.3633 24.375 24.4375C24.375 26.5117 22.6992 28.1875 20.625 28.1875C18.5508 28.1875 16.875 26.5117 16.875 24.4375C16.875 22.3633 18.5508 20.6875 20.625 20.6875ZM40.5703 46.2578C37.9453 43.1172 34.0898 41.3125 30 41.3125C25.9102 41.3125 22.0547 43.1172 19.4297 46.2578C17.8477 48.168 14.9648 45.7656 16.5469 43.8555C19.8867 39.8594 24.7969 37.5625 30 37.5625C35.2031 37.5625 40.1133 39.8594 43.4414 43.8672C45.0352 45.7656 42.1523 48.168 40.5703 46.2578Z" fill="#BB2F48"/>
<path d="M74.5 45.6428L72.357 43.5L67 48.8573L61.6428 43.5L59.5 45.6428L64.857 51L59.5 56.3573L61.6428 58.5L67 53.1427L72.357 58.5L74.5 56.3573L69.1425 51L74.5 45.6428Z" fill="#BB2F48"/>
</g>
<defs>
<clipPath id="clip0">
<rect width="74.125" height="60.125" fill="white" transform="translate(0.9375)"/>
</clipPath>
</defs>
</svg>
