<svg width="24" height="8" viewBox="0 0 24 8" fill="none" xmlns="http://www.w3.org/2000/svg">
<path d="M22.222 7.76812L21.997 6.64312H19.483L19.083 7.76012L17.068 7.76412C18.0273 5.45726 18.9886 3.15126 19.952 0.846117C20.116 0.455117 20.407 0.256118 20.836 0.258118C21.164 0.261118 21.699 0.261117 22.442 0.259117L24 7.76512L22.222 7.76812ZM20.049 5.10212H21.669L21.064 2.28212L20.049 5.10212ZM7.06 0.257117L9.086 0.259117L5.954 7.76912L3.903 7.76712C3.38725 5.78344 2.87791 3.79809 2.375 1.81112C2.275 1.41512 2.077 1.13812 1.696 1.00712C1.357 0.890117 0.792 0.710117 0 0.465117V0.260118H3.237C3.797 0.260118 4.124 0.531117 4.229 1.08712C4.335 1.64412 4.601 3.06212 5.029 5.34112L7.06 0.257117ZM11.87 0.259117L10.268 7.76712L8.34 7.76512L9.94 0.257117L11.87 0.259117ZM15.78 0.120117C16.357 0.120117 17.084 0.300117 17.502 0.465117L17.164 2.02212C16.786 1.87012 16.164 1.66512 15.641 1.67212C14.881 1.68512 14.411 2.00412 14.411 2.31012C14.411 2.80812 15.227 3.05912 16.067 3.60312C17.026 4.22312 17.152 4.78012 17.14 5.38512C17.127 6.64112 16.067 7.88012 13.831 7.88012C12.811 7.86512 12.443 7.77912 11.611 7.48412L11.963 5.85912C12.81 6.21412 13.169 6.32712 13.893 6.32712C14.556 6.32712 15.125 6.05912 15.13 5.59212C15.134 5.26012 14.93 5.09512 14.186 4.68512C13.442 4.27412 12.398 3.70512 12.412 2.56312C12.429 1.10112 13.814 0.120117 15.781 0.120117H15.78Z" fill="white"/>
</svg>
