<svg width="17" height="15" viewBox="0 0 17 15" fill="none" xmlns="http://www.w3.org/2000/svg">
<path d="M11.8211 0C10.4026 0 9.0411 0.66036 8.15247 1.70389C7.26383 0.66036 5.90235 0 4.4838 0C1.9728 0 -0.00012207 1.97293 -0.00012207 4.48392C-0.00012207 7.5656 2.77176 10.0766 6.97034 13.892L8.15247 14.96L9.33459 13.8839C13.5332 10.0766 16.3051 7.5656 16.3051 4.48392C16.3051 1.97293 14.3321 0 11.8211 0ZM8.23399 12.6773L8.15247 12.7588L8.07094 12.6773C4.19031 9.16351 1.6304 6.84002 1.6304 4.48392C1.6304 2.85341 2.85328 1.63052 4.4838 1.63052C5.7393 1.63052 6.96219 2.43762 7.39428 3.55453H8.91881C9.34274 2.43762 10.5656 1.63052 11.8211 1.63052C13.4516 1.63052 14.6745 2.85341 14.6745 4.48392C14.6745 6.84002 12.1146 9.16351 8.23399 12.6773Z" fill="#10151A"/>
</svg>
