<?xml version="1.0" standalone="no"?>
<!DOCTYPE svg PUBLIC "-//W3C//DTD SVG 20010904//EN"
 "http://www.w3.org/TR/2001/REC-SVG-20010904/DTD/svg10.dtd">
<svg version="1.0" xmlns="http://www.w3.org/2000/svg"
 width="70.000000pt" height="70.000000pt" viewBox="0 0 70.000000 70.000000"
 preserveAspectRatio="xMidYMid meet">
<metadata>
Created by potrace 1.11, written by Peter Selinger 2001-2013
</metadata>
<g transform="translate(0.000000,70.000000) scale(0.100000,-0.100000)"
fill="#000000" stroke="none">
<path d="M605 472 c-32 -28 -47 -50 -37 -56 5 -3 21 12 36 34 29 45 30 47 1
22z"/>
<path d="M480 452 c0 -27 15 -52 32 -52 5 0 1 12 -9 28 l-17 27 27 -24 c25
-23 38 -49 18 -37 -4 3 -16 -3 -26 -14 -18 -20 -18 -20 -32 0 -8 11 -22 19
-31 18 -11 -2 -18 5 -20 20 -4 27 -24 24 -32 -4 -3 -11 -15 -20 -29 -22 -14
-1 -33 -10 -43 -19 -17 -15 -18 -15 -18 5 0 12 -4 22 -10 22 -5 0 -10 -13 -10
-30 0 -20 -5 -30 -15 -30 -10 0 -15 10 -15 31 0 24 -4 30 -15 25 -11 -4 -15 1
-15 19 0 16 -6 25 -15 25 -9 0 -15 -9 -15 -25 0 -18 -4 -23 -15 -19 -35 14
-61 -46 -33 -74 7 -7 27 -12 45 -12 19 0 33 5 33 12 0 9 3 9 12 0 19 -19 68
-15 68 5 0 15 1 15 18 0 28 -26 136 -24 154 2 14 20 14 20 26 0 8 -12 23 -19
42 -19 29 0 30 2 30 45 0 25 -4 45 -10 45 -5 0 -10 9 -10 19 0 11 -15 28 -35
40 l-35 20 0 -27z m-290 -97 c0 -8 -7 -15 -15 -15 -8 0 -15 7 -15 15 0 8 7 15
15 15 8 0 15 -7 15 -15z m260 0 c0 -8 -4 -15 -9 -15 -13 0 -22 16 -14 24 11
11 23 6 23 -9z m-90 -5 c0 -5 -4 -10 -10 -10 -5 0 -10 5 -10 10 0 6 5 10 10
10 6 0 10 -4 10 -10z m180 -6 c0 -8 -4 -12 -10 -9 -5 3 -10 10 -10 16 0 5 5 9
10 9 6 0 10 -7 10 -16z"/>
<path d="M606 424 c-5 -14 -4 -15 9 -4 17 14 19 20 6 20 -5 0 -12 -7 -15 -16z"/>
<path d="M81 391 c-57 -16 -52 -73 8 -79 31 -3 31 -3 31 42 0 25 -3 46 -7 45
-5 -1 -19 -4 -32 -8z m17 -42 c-2 -6 -8 -10 -13 -10 -5 0 -11 4 -13 10 -2 6 4
11 13 11 9 0 15 -5 13 -11z"/>
<path d="M213 277 c-14 -31 -2 -102 17 -102 8 0 18 13 21 30 l7 30 1 -27 c1
-35 27 -37 35 -3 4 14 11 25 16 25 6 0 10 7 10 15 0 10 -11 15 -35 15 -37 0
-43 8 -23 28 9 9 6 12 -13 12 -17 0 -29 -8 -36 -23z"/>
<path d="M423 258 c-12 -16 -10 -65 4 -79 6 -6 20 -8 32 -4 17 5 20 13 18 43
-3 49 -31 69 -54 40z"/>
<path d="M342 251 c-8 -5 -12 -21 -10 -37 3 -30 26 -42 56 -28 14 6 11 9 -13
14 l-30 8 33 1 c35 1 37 3 22 32 -11 20 -36 24 -58 10z m35 -17 c-3 -3 -12 -4
-19 -1 -8 3 -5 6 6 6 11 1 17 -2 13 -5z"/>
</g>
</svg>
